<?xml version="1.0" standalone="yes"?>

<svg version="1.1" viewBox="0.0 0.0 4738.0 1044.0" fill="none" stroke="none" stroke-linecap="square" stroke-miterlimit="10" xmlns="http://www.w3.org/2000/svg" xmlns:xlink="http://www.w3.org/1999/xlink"><clipPath id="p.0"><path d="m0 0l4738.0 0l0 1044.0l-4738.0 0l0 -1044.0z" clip-rule="nonzero"></path></clipPath><g clip-path="url(#p.0)"><path fill="#000000" fill-opacity="0.0" d="m0 0l4738.3804 0l0 1044.6221l-4738.3804 0z" fill-rule="nonzero"></path><path fill="#ffffff" d="m15.490813 24.975065l910.4882 0l0 910.26776l-910.4882 0z" fill-rule="nonzero"></path><path stroke="#000000" stroke-width="2.0" stroke-linejoin="round" stroke-linecap="butt" d="m15.490813 24.975065l910.4882 0l0 910.26776l-910.4882 0z" fill-rule="nonzero"></path><path fill="#000000" fill-opacity="0.0" d="m224.48294 950.8688l492.50394 0l0 63.433044l-492.50394 0z" fill-rule="nonzero"></path><path fill="#000000" d="m312.6724 1021.3088l-17.75 -45.8125l6.5625 0l11.90625 33.28125q1.4375 4.0 2.40625 7.5q1.0625 -3.75 2.46875 -7.5l12.375 -33.28125l6.1875 0l-17.9375 45.8125l-6.21875 0zm51.59375 -10.6875l5.8125 0.71875q-1.375 5.09375 -5.09375 7.90625q-3.71875 2.8125 -9.5 2.8125q-7.28125 0 -11.546875 -4.484375q-4.265625 -4.484375 -4.265625 -12.578125q0 -8.375 4.3125 -13.0q4.3125 -4.625 11.1875 -4.625q6.65625 0 10.875 4.53125q4.21875 4.53125 4.21875 12.75q0 0.5 -0.03125 1.5l-24.75 0q0.3125 5.46875 3.09375 8.375q2.78125 2.90625 6.9375 2.90625q3.09375 0 5.28125 -1.625q2.1875 -1.625 3.46875 -5.1875zm-18.46875 -9.09375l18.53125 0q-0.375 -4.1875 -2.125 -6.28125q-2.6875 -3.25 -6.96875 -3.25q-3.875 0 -6.515625 2.59375q-2.640625 2.59375 -2.921875 6.9375zm31.28125 19.78125l0 -33.1875l5.0625 0l0 5.03125q1.9375 -3.53125 3.578125 -4.65625q1.640625 -1.125 3.609375 -1.125q2.84375 0 5.78125 1.8125l-1.9375 5.21875q-2.0625 -1.21875 -4.125 -1.21875q-1.84375 0 -3.3125 1.109375q-1.46875 1.109375 -2.09375 3.078125q-0.9375 3.0 -0.9375 6.5625l0 17.375l-5.625 0zm33.65625 -5.03125l0.8125 4.96875q-2.375 0.5 -4.25 0.5q-3.0625 0 -4.75 -0.96875q-1.6875 -0.96875 -2.375 -2.546875q-0.6875 -1.578125 -0.6875 -6.640625l0 -19.09375l-4.125 0l0 -4.375l4.125 0l0 -8.21875l5.59375 -3.375l0 11.59375l5.65625 0l0 4.375l-5.65625 0l0 19.40625q0 2.40625 0.296875 3.09375q0.296875 0.6875 0.96875 1.09375q0.671875 0.40625 1.921875 0.40625q0.9375 0 2.46875 -0.21875zm5.53125 -34.3125l0 -6.46875l5.625 0l0 6.46875l-5.625 0zm0 39.34375l0 -33.1875l5.625 0l0 33.1875l-5.625 0zm35.84375 -12.15625l5.53125 0.71875q-0.90625 5.71875 -4.640625 8.953125q-3.734375 3.234375 -9.171875 3.234375q-6.8125 0 -10.953125 -4.453125q-4.140625 -4.453125 -4.140625 -12.765625q0 -5.375 1.78125 -9.40625q1.78125 -4.03125 5.421875 -6.046875q3.640625 -2.015625 7.921875 -2.015625q5.40625 0 8.84375 2.734375q3.4375 2.734375 4.40625 7.765625l-5.46875 0.84375q-0.78125 -3.34375 -2.765625 -5.03125q-1.984375 -1.6875 -4.796875 -1.6875q-4.25 0 -6.90625 3.046875q-2.65625 3.046875 -2.65625 9.640625q0 6.6875 2.5625 9.71875q2.5625 3.03125 6.6875 3.03125q3.3125 0 5.53125 -2.03125q2.21875 -2.03125 2.8125 -6.25zm32.0 8.0625q-3.125 2.65625 -6.015625 3.75q-2.890625 1.09375 -6.203125 1.09375q-5.46875 0 -8.40625 -2.671875q-2.9375 -2.671875 -2.9375 -6.828125q0 -2.4375 1.109375 -4.453125q1.109375 -2.015625 2.90625 -3.234375q1.796875 -1.21875 4.046875 -1.84375q1.65625 -0.4375 5.0 -0.84375q6.8125 -0.8125 10.03125 -1.9375q0.03125 -1.15625 0.03125 -1.46875q0 -3.4375 -1.59375 -4.84375q-2.15625 -1.90625 -6.40625 -1.90625q-3.96875 0 -5.859375 1.390625q-1.890625 1.390625 -2.796875 4.921875l-5.5 -0.75q0.75 -3.53125 2.46875 -5.703125q1.71875 -2.171875 4.96875 -3.34375q3.25 -1.171875 7.53125 -1.171875q4.25 0 6.90625 1.0q2.65625 1.0 3.90625 2.515625q1.25 1.515625 1.75 3.828125q0.28125 1.4375 0.28125 5.1875l0 7.5q0 7.84375 0.359375 9.921875q0.359375 2.078125 1.421875 3.984375l-5.875 0q-0.875 -1.75 -1.125 -4.09375zm-0.46875 -12.5625q-3.0625 1.25 -9.1875 2.125q-3.46875 0.5 -4.90625 1.125q-1.4375 0.625 -2.21875 1.828125q-0.78125 1.203125 -0.78125 2.671875q0 2.25 1.703125 3.75q1.703125 1.5 4.984375 1.5q3.25 0 5.78125 -1.421875q2.53125 -1.421875 3.71875 -3.890625q0.90625 -1.90625 0.90625 -5.625l0 -2.0625zm14.28125 16.65625l0 -45.8125l5.625 0l0 45.8125l-5.625 0zm32.59372 0l0 -45.8125l6.0625 0l0 40.40625l22.5625 0l0 5.40625l-28.625 0zm35.15625 -39.34375l0 -6.46875l5.625 0l0 6.46875l-5.625 0zm0 39.34375l0 -33.1875l5.625 0l0 33.1875l-5.625 0zm14.1875 0l0 -33.1875l5.0625 0l0 4.71875q3.65625 -5.46875 10.5625 -5.46875q3.0 0 5.515625 1.078125q2.515625 1.078125 3.765625 2.828125q1.25 1.75 1.75 4.15625q0.3125 1.5625 0.3125 5.46875l0 20.40625l-5.625 0l0 -20.1875q0 -3.4375 -0.65625 -5.140625q-0.65625 -1.703125 -2.328125 -2.71875q-1.671875 -1.015625 -3.921875 -1.015625q-3.59375 0 -6.203125 2.28125q-2.609375 2.28125 -2.609375 8.65625l0 18.125l-5.625 0zm58.3125 -10.6875l5.8125 0.71875q-1.375 5.09375 -5.09375 7.90625q-3.71875 2.8125 -9.5 2.8125q-7.28125 0 -11.546875 -4.484375q-4.265625 -4.484375 -4.265625 -12.578125q0 -8.375 4.3125 -13.0q4.3125 -4.625 11.1875 -4.625q6.65625 0 10.875 4.53125q4.21875 4.53125 4.21875 12.75q0 0.5 -0.03125 1.5l-24.75 0q0.3125 5.46875 3.09375 8.375q2.78125 2.90625 6.9375 2.90625q3.09375 0 5.28125 -1.625q2.1875 -1.625 3.46875 -5.1875zm-18.46875 -9.09375l18.53125 0q-0.375 -4.1875 -2.125 -6.28125q-2.6875 -3.25 -6.96875 -3.25q-3.875 0 -6.515625 2.59375q-2.640625 2.59375 -2.921875 6.9375z" fill-rule="nonzero"></path><path fill="#ffffff" d="m963.3779 24.975065l910.48816 0l0 910.26776l-910.48816 0z" fill-rule="nonzero"></path><path stroke="#000000" stroke-width="2.0" stroke-linejoin="round" stroke-linecap="butt" d="m963.3779 24.975065l910.48816 0l0 910.26776l-910.48816 0z" fill-rule="nonzero"></path><path fill="#ffffff" d="m3812.874 24.975065l910.4883 0l0 910.26776l-910.4883 0z" fill-rule="nonzero"></path><path stroke="#000000" stroke-width="2.0" stroke-linejoin="round" stroke-linecap="butt" d="m3812.874 24.975065l910.4883 0l0 910.26776l-910.4883 0z" fill-rule="nonzero"></path><path fill="#000000" fill-opacity="0.0" d="m3946.496 950.8688l643.24414 0l0 63.433044l-643.24414 0z" fill-rule="nonzero"></path><path fill="#000000" d="m4167.8057 1006.59l5.71875 -0.5q0.40625 3.4375 1.890625 5.640625q1.484375 2.203125 4.609375 3.5625q3.125 1.359375 7.03125 1.359375q3.46875 0 6.125 -1.03125q2.65625 -1.03125 3.953125 -2.828125q1.296875 -1.796875 1.296875 -3.921875q0 -2.15625 -1.25 -3.765625q-1.25 -1.609375 -4.125 -2.703125q-1.84375 -0.71875 -8.15625 -2.234375q-6.3125 -1.515625 -8.84375 -2.859375q-3.28125 -1.71875 -4.890625 -4.265625q-1.609375 -2.546875 -1.609375 -5.703125q0 -3.46875 1.96875 -6.484375q1.96875 -3.015625 5.75 -4.578125q3.78125 -1.5625 8.40625 -1.5625q5.09375 0 8.984375 1.640625q3.890625 1.640625 5.984375 4.828125q2.09375 3.1875 2.25 7.21875l-5.8125 0.4375q-0.46875 -4.34375 -3.171875 -6.5625q-2.703125 -2.21875 -7.984375 -2.21875q-5.5 0 -8.015625 2.015625q-2.515625 2.015625 -2.515625 4.859375q0 2.46875 1.78125 4.0625q1.75 1.59375 9.140625 3.265625q7.390625 1.671875 10.140625 2.921875q4.0 1.84375 5.90625 4.671875q1.90625 2.828125 1.90625 6.515625q0 3.65625 -2.09375 6.890625q-2.09375 3.234375 -6.015625 5.03125q-3.921875 1.796875 -8.828125 1.796875q-6.21875 0 -10.421875 -1.8125q-4.203125 -1.8125 -6.59375 -5.453125q-2.390625 -3.640625 -2.515625 -8.234375zm65.1875 27.437439l0 -16.249939q-1.3125 1.84375 -3.671875 3.0625q-2.359375 1.21875 -5.015625 1.21875q-5.90625 0 -10.171875 -4.71875q-4.265625 -4.71875 -4.265625 -12.9375q0 -5.0 1.734375 -8.96875q1.734375 -3.96875 5.03125 -6.015625q3.296875 -2.046875 7.234375 -2.046875q6.15625 0 9.6875 5.1875l0 -4.4375l5.0625 0l0 45.90619l-5.625 0zm-17.34375 -29.406189q0 6.40625 2.6875 9.609375q2.6875 3.203125 6.4375 3.203125q3.59375 0 6.1875 -3.046875q2.59375 -3.046875 2.59375 -9.265625q0 -6.625 -2.734375 -9.96875q-2.734375 -3.34375 -6.421875 -3.34375q-3.65625 0 -6.203125 3.109375q-2.546875 3.109375 -2.546875 9.703125zm53.53125 16.6875l0 -4.875q-3.875 5.625 -10.53125 5.625q-2.9375 0 -5.484375 -1.125q-2.546875 -1.125 -3.78125 -2.828125q-1.234375 -1.703125 -1.734375 -4.171875q-0.34375 -1.65625 -0.34375 -5.25l0 -20.5625l5.625 0l0 18.40625q0 4.40625 0.34375 5.9375q0.53125 2.21875 2.25 3.484375q1.71875 1.265625 4.25 1.265625q2.53125 0 4.75 -1.296875q2.21875 -1.296875 3.140625 -3.53125q0.921875 -2.234375 0.921875 -6.484375l0 -17.78125l5.625 0l0 33.1875l-5.03125 0zm35.5 -4.09375q-3.125 2.65625 -6.015625 3.75q-2.890625 1.09375 -6.203125 1.09375q-5.46875 0 -8.40625 -2.671875q-2.9375 -2.671875 -2.9375 -6.828125q0 -2.4375 1.109375 -4.453125q1.109375 -2.015625 2.90625 -3.234375q1.796875 -1.21875 4.046875 -1.84375q1.65625 -0.4375 5.0 -0.84375q6.8125 -0.8125 10.03125 -1.9375q0.03125 -1.15625 0.03125 -1.46875q0 -3.4375 -1.59375 -4.84375q-2.15625 -1.90625 -6.40625 -1.90625q-3.96875 0 -5.859375 1.390625q-1.890625 1.390625 -2.796875 4.921875l-5.5 -0.75q0.75 -3.53125 2.46875 -5.703125q1.71875 -2.171875 4.96875 -3.34375q3.25 -1.171875 7.53125 -1.171875q4.25 0 6.90625 1.0q2.65625 1.0 3.90625 2.515625q1.25 1.515625 1.75 3.828125q0.28125 1.4375 0.28125 5.1875l0 7.5q0 7.84375 0.359375 9.921875q0.359375 2.078125 1.421875 3.984375l-5.875 0q-0.875 -1.75 -1.125 -4.09375zm-0.46875 -12.5625q-3.0625 1.25 -9.1875 2.125q-3.46875 0.5 -4.90625 1.125q-1.4375 0.625 -2.21875 1.828125q-0.78125 1.203125 -0.78125 2.671875q0 2.25 1.703125 3.75q1.703125 1.5 4.984375 1.5q3.25 0 5.78125 -1.421875q2.53125 -1.421875 3.71875 -3.890625q0.90625 -1.90625 0.90625 -5.625l0 -2.0625zm14.34375 16.65625l0 -33.1875l5.0625 0l0 5.03125q1.9375 -3.53125 3.578125 -4.65625q1.640625 -1.125 3.609375 -1.125q2.84375 0 5.78125 1.8125l-1.9375 5.21875q-2.0625 -1.21875 -4.125 -1.21875q-1.84375 0 -3.3125 1.109375q-1.46875 1.109375 -2.09375 3.078125q-0.9375 3.0 -0.9375 6.5625l0 17.375l-5.625 0zm44.09375 -10.6875l5.8125 0.71875q-1.375 5.09375 -5.09375 7.90625q-3.71875 2.8125 -9.5 2.8125q-7.28125 0 -11.546875 -4.484375q-4.265625 -4.484375 -4.265625 -12.578125q0 -8.375 4.3125 -13.0q4.3125 -4.625 11.1875 -4.625q6.65625 0 10.875 4.53125q4.21875 4.53125 4.21875 12.75q0 0.5 -0.03125 1.5l-24.75 0q0.3125 5.46875 3.09375 8.375q2.78125 2.90625 6.9375 2.90625q3.09375 0 5.28125 -1.625q2.1875 -1.625 3.46875 -5.1875zm-18.46875 -9.09375l18.53125 0q-0.375 -4.1875 -2.125 -6.28125q-2.6875 -3.25 -6.96875 -3.25q-3.875 0 -6.515625 2.59375q-2.640625 2.59375 -2.921875 6.9375z" fill-rule="nonzero"></path><path fill="#ffffff" d="m1911.2651 24.975065l910.48804 0l0 910.26776l-910.48804 0z" fill-rule="nonzero"></path><path stroke="#000000" stroke-width="2.0" stroke-linejoin="round" stroke-linecap="butt" d="m1911.2651 24.975065l910.48804 0l0 910.26776l-910.48804 0z" fill-rule="nonzero"></path><path fill="#ffffff" d="m2862.9082 24.975065l910.48804 0l0 910.26776l-910.48804 0z" fill-rule="nonzero"></path><path stroke="#000000" stroke-width="2.0" stroke-linejoin="round" stroke-linecap="butt" d="m2862.9082 24.975065l910.48804 0l0 910.26776l-910.48804 0z" fill-rule="nonzero"></path><path fill="#000000" fill-opacity="0.0" d="m1172.3701 950.8688l492.5039 0l0 63.433044l-492.5039 0z" fill-rule="nonzero"></path><path fill="#000000" d="m1210.294 1021.3088l0 -45.8125l6.0625 0l0 18.8125l23.8125 0l0 -18.8125l6.0625 0l0 45.8125l-6.0625 0l0 -21.59375l-23.8125 0l0 21.59375l-6.0625 0zm43.21875 -16.59375q0 -9.21875 5.125 -13.65625q4.28125 -3.6875 10.4375 -3.6875q6.84375 0 11.1875 4.484375q4.34375 4.484375 4.34375 12.390625q0 6.40625 -1.921875 10.078125q-1.921875 3.671875 -5.59375 5.703125q-3.671875 2.03125 -8.015625 2.03125q-6.96875 0 -11.265625 -4.46875q-4.296875 -4.46875 -4.296875 -12.875zm5.78125 0q0 6.375 2.78125 9.546875q2.78125 3.171875 7.0 3.171875q4.1875 0 6.96875 -3.1875q2.78125 -3.1875 2.78125 -9.71875q0 -6.15625 -2.796875 -9.328125q-2.796875 -3.171875 -6.953125 -3.171875q-4.21875 0 -7.0 3.15625q-2.78125 3.15625 -2.78125 9.53125zm31.84375 16.59375l0 -33.1875l5.0625 0l0 5.03125q1.9375 -3.53125 3.578125 -4.65625q1.640625 -1.125 3.609375 -1.125q2.84375 0 5.78125 1.8125l-1.9375 5.21875q-2.0625 -1.21875 -4.125 -1.21875q-1.84375 0 -3.3125 1.109375q-1.46875 1.109375 -2.09375 3.078125q-0.9375 3.0 -0.9375 6.5625l0 17.375l-5.625 0zm21.40625 -39.34375l0 -6.46875l5.625 0l0 6.46875l-5.625 0zm0 39.34375l0 -33.1875l5.625 0l0 33.1875l-5.625 0zm11.21875 0l0 -4.5625l21.125 -24.25q-3.59375 0.1875 -6.34375 0.1875l-13.53125 0l0 -4.5625l27.125 0l0 3.71875l-17.96875 21.0625l-3.46875 3.84375q3.78125 -0.28125 7.09375 -0.28125l15.34375 0l0 4.84375l-29.375 0zm32.875 -16.59375q0 -9.21875 5.125 -13.65625q4.28125 -3.6875 10.4375 -3.6875q6.84375 0 11.1875 4.484375q4.34375 4.484375 4.34375 12.390625q0 6.40625 -1.921875 10.078125q-1.921875 3.671875 -5.59375 5.703125q-3.671875 2.03125 -8.015625 2.03125q-6.96875 0 -11.265625 -4.46875q-4.296875 -4.46875 -4.296875 -12.875zm5.78125 0q0 6.375 2.78125 9.546875q2.78125 3.171875 7.0 3.171875q4.1875 0 6.96875 -3.1875q2.78125 -3.1875 2.78125 -9.71875q0 -6.15625 -2.796875 -9.328125q-2.796875 -3.171875 -6.953125 -3.171875q-4.21875 0 -7.0 3.15625q-2.78125 3.15625 -2.78125 9.53125zm31.90625 16.59375l0 -33.1875l5.0625 0l0 4.71875q3.65625 -5.46875 10.5625 -5.46875q3.0 0 5.515625 1.078125q2.515625 1.078125 3.765625 2.828125q1.25 1.75 1.75 4.15625q0.3125 1.5625 0.3125 5.46875l0 20.40625l-5.625 0l0 -20.1875q0 -3.4375 -0.65625 -5.140625q-0.65625 -1.703125 -2.328125 -2.71875q-1.671875 -1.015625 -3.921875 -1.015625q-3.59375 0 -6.203125 2.28125q-2.609375 2.28125 -2.609375 8.65625l0 18.125l-5.625 0zm47.875 -5.03125l0.8125 4.96875q-2.375 0.5 -4.25 0.5q-3.0625 0 -4.75 -0.96875q-1.6875 -0.96875 -2.375 -2.546875q-0.6875 -1.578125 -0.6875 -6.640625l0 -19.09375l-4.125 0l0 -4.375l4.125 0l0 -8.21875l5.59375 -3.375l0 11.59375l5.65625 0l0 4.375l-5.65625 0l0 19.40625q0 2.40625 0.296875 3.09375q0.296875 0.6875 0.96875 1.09375q0.671875 0.40625 1.921875 0.40625q0.9375 0 2.46875 -0.21875zm27.15625 0.9375q-3.125 2.65625 -6.015625 3.75q-2.890625 1.09375 -6.203125 1.09375q-5.46875 0 -8.40625 -2.671875q-2.9375 -2.671875 -2.9375 -6.828125q0 -2.4375 1.109375 -4.453125q1.109375 -2.015625 2.90625 -3.234375q1.796875 -1.21875 4.046875 -1.84375q1.65625 -0.4375 5.0 -0.84375q6.8125 -0.8125 10.03125 -1.9375q0.03125 -1.15625 0.03125 -1.46875q0 -3.4375 -1.59375 -4.84375q-2.15625 -1.90625 -6.40625 -1.90625q-3.96875 0 -5.859375 1.390625q-1.890625 1.390625 -2.796875 4.921875l-5.5 -0.75q0.75 -3.53125 2.46875 -5.703125q1.71875 -2.171875 4.96875 -3.34375q3.25 -1.171875 7.53125 -1.171875q4.25 0 6.90625 1.0q2.65625 1.0 3.90625 2.515625q1.25 1.515625 1.75 3.828125q0.28125 1.4375 0.28125 5.1875l0 7.5q0 7.84375 0.359375 9.921875q0.359375 2.078125 1.421875 3.984375l-5.875 0q-0.875 -1.75 -1.125 -4.09375zm-0.46875 -12.5625q-3.0625 1.25 -9.1875 2.125q-3.46875 0.5 -4.90625 1.125q-1.4375 0.625 -2.21875 1.828125q-0.78125 1.203125 -0.78125 2.671875q0 2.25 1.703125 3.75q1.703125 1.5 4.984375 1.5q3.25 0 5.78125 -1.421875q2.53125 -1.421875 3.71875 -3.890625q0.90625 -1.90625 0.90625 -5.625l0 -2.0625zm14.28125 16.65625l0 -45.8125l5.625 0l0 45.8125l-5.625 0zm32.59375 0l0 -45.8125l6.0625 0l0 40.40625l22.5625 0l0 5.40625l-28.625 0zm35.15625 -39.34375l0 -6.46875l5.625 0l0 6.46875l-5.625 0zm0 39.34375l0 -33.1875l5.625 0l0 33.1875l-5.625 0zm14.1875 0l0 -33.1875l5.0625 0l0 4.71875q3.65625 -5.46875 10.5625 -5.46875q3.0 0 5.515625 1.078125q2.515625 1.078125 3.765625 2.828125q1.25 1.75 1.75 4.15625q0.3125 1.5625 0.3125 5.46875l0 20.40625l-5.625 0l0 -20.1875q0 -3.4375 -0.65625 -5.140625q-0.65625 -1.703125 -2.328125 -2.71875q-1.671875 -1.015625 -3.921875 -1.015625q-3.59375 0 -6.203125 2.28125q-2.609375 2.28125 -2.609375 8.65625l0 18.125l-5.625 0zm58.3125 -10.6875l5.8125 0.71875q-1.375 5.09375 -5.09375 7.90625q-3.71875 2.8125 -9.5 2.8125q-7.28125 0 -11.546875 -4.484375q-4.265625 -4.484375 -4.265625 -12.578125q0 -8.375 4.3125 -13.0q4.3125 -4.625 11.1875 -4.625q6.65625 0 10.875 4.53125q4.21875 4.53125 4.21875 12.75q0 0.5 -0.03125 1.5l-24.75 0q0.3125 5.46875 3.09375 8.375q2.78125 2.90625 6.9375 2.90625q3.09375 0 5.28125 -1.625q2.1875 -1.625 3.46875 -5.1875zm-18.46875 -9.09375l18.53125 0q-0.375 -4.1875 -2.125 -6.28125q-2.6875 -3.25 -6.96875 -3.25q-3.875 0 -6.515625 2.59375q-2.640625 2.59375 -2.921875 6.9375z" fill-rule="nonzero"></path><path fill="#000000" fill-opacity="0.0" d="m2120.2573 950.8688l492.5039 0l0 63.433044l-492.5039 0z" fill-rule="nonzero"></path><path fill="#000000" d="m2320.5718 1005.2463l6.0625 1.53125q-1.90625 7.46875 -6.859375 11.390625q-4.953125 3.921875 -12.109375 3.921875q-7.40625 0 -12.046875 -3.015625q-4.640625 -3.015625 -7.0625 -8.734375q-2.421875 -5.71875 -2.421875 -12.28125q0 -7.15625 2.734375 -12.484375q2.734375 -5.328125 7.78125 -8.09375q5.046875 -2.765625 11.109375 -2.765625q6.875 0 11.5625 3.5q4.6875 3.5 6.53125 9.84375l-5.96875 1.40625q-1.59375 -5.0 -4.625 -7.28125q-3.03125 -2.28125 -7.625 -2.28125q-5.28125 0 -8.828125 2.53125q-3.546875 2.53125 -4.984375 6.796875q-1.4375 4.265625 -1.4375 8.796875q0 5.84375 1.703125 10.203125q1.703125 4.359375 5.296875 6.515625q3.59375 2.15625 7.78125 2.15625q5.09375 0 8.625 -2.9375q3.53125 -2.9375 4.78125 -8.71875zm12.75 16.0625l0 -33.1875l5.0625 0l0 5.03125q1.9375 -3.53125 3.578125 -4.65625q1.640625 -1.125 3.609375 -1.125q2.84375 0 5.78125 1.8125l-1.9375 5.21875q-2.0625 -1.21875 -4.125 -1.21875q-1.84375 0 -3.3125 1.109375q-1.46875 1.109375 -2.09375 3.078125q-0.9375 3.0 -0.9375 6.5625l0 17.375l-5.625 0zm19.28125 -16.59375q0 -9.21875 5.125 -13.65625q4.28125 -3.6875 10.4375 -3.6875q6.84375 0 11.1875 4.484375q4.34375 4.484375 4.34375 12.390625q0 6.40625 -1.921875 10.078125q-1.921875 3.671875 -5.59375 5.703125q-3.671875 2.03125 -8.015625 2.03125q-6.96875 0 -11.265625 -4.46875q-4.296875 -4.46875 -4.296875 -12.875zm5.78125 0q0 6.375 2.78125 9.546875q2.78125 3.171875 7.0 3.171875q4.1875 0 6.96875 -3.1875q2.78125 -3.1875 2.78125 -9.71875q0 -6.15625 -2.796875 -9.328125q-2.796875 -3.171875 -6.953125 -3.171875q-4.21875 0 -7.0 3.15625q-2.78125 3.15625 -2.78125 9.53125zm29.65625 6.6875l5.5625 -0.875q0.46875 3.34375 2.609375 5.125q2.140625 1.78125 5.984375 1.78125q3.875 0 5.75 -1.578125q1.875 -1.578125 1.875 -3.703125q0 -1.90625 -1.65625 -3.0q-1.15625 -0.75 -5.75 -1.90625q-6.1875 -1.5625 -8.578125 -2.703125q-2.390625 -1.140625 -3.625 -3.15625q-1.234375 -2.015625 -1.234375 -4.453125q0 -2.21875 1.015625 -4.109375q1.015625 -1.890625 2.765625 -3.140625q1.3125 -0.96875 3.578125 -1.640625q2.265625 -0.671875 4.859375 -0.671875q3.90625 0 6.859375 1.125q2.953125 1.125 4.359375 3.046875q1.40625 1.921875 1.9375 5.140625l-5.5 0.75q-0.375 -2.5625 -2.171875 -4.0q-1.796875 -1.4375 -5.078125 -1.4375q-3.875 0 -5.53125 1.28125q-1.65625 1.28125 -1.65625 3.0q0 1.09375 0.6875 1.96875q0.6875 0.90625 2.15625 1.5q0.84375 0.3125 4.96875 1.4375q5.96875 1.59375 8.328125 2.609375q2.359375 1.015625 3.703125 2.953125q1.34375 1.9375 1.34375 4.8125q0 2.8125 -1.640625 5.296875q-1.640625 2.484375 -4.734375 3.84375q-3.09375 1.359375 -7.0 1.359375q-6.46875 0 -9.859375 -2.6875q-3.390625 -2.6875 -4.328125 -7.96875zm32.0 0l5.5625 -0.875q0.46875 3.34375 2.609375 5.125q2.140625 1.78125 5.984375 1.78125q3.875 0 5.75 -1.578125q1.875 -1.578125 1.875 -3.703125q0 -1.90625 -1.65625 -3.0q-1.15625 -0.75 -5.75 -1.90625q-6.1875 -1.5625 -8.578125 -2.703125q-2.390625 -1.140625 -3.625 -3.15625q-1.234375 -2.015625 -1.234375 -4.453125q0 -2.21875 1.015625 -4.109375q1.015625 -1.890625 2.765625 -3.140625q1.3125 -0.96875 3.578125 -1.640625q2.265625 -0.671875 4.859375 -0.671875q3.90625 0 6.859375 1.125q2.953125 1.125 4.359375 3.046875q1.40625 1.921875 1.9375 5.140625l-5.5 0.75q-0.375 -2.5625 -2.171875 -4.0q-1.796875 -1.4375 -5.078125 -1.4375q-3.875 0 -5.53125 1.28125q-1.65625 1.28125 -1.65625 3.0q0 1.09375 0.6875 1.96875q0.6875 0.90625 2.15625 1.5q0.84375 0.3125 4.96875 1.4375q5.96875 1.59375 8.328125 2.609375q2.359375 1.015625 3.703125 2.953125q1.34375 1.9375 1.34375 4.8125q0 2.8125 -1.640625 5.296875q-1.640625 2.484375 -4.734375 3.84375q-3.09375 1.359375 -7.0 1.359375q-6.46875 0 -9.859375 -2.6875q-3.390625 -2.6875 -4.328125 -7.96875z" fill-rule="nonzero"></path><path fill="#000000" fill-opacity="0.0" d="m3071.9001 950.8688l492.50415 0l0 63.433044l-492.50415 0z" fill-rule="nonzero"></path><path fill="#000000" d="m3297.0898 1021.3088l17.71875 -23.875l-15.625 -21.9375l7.21875 0l8.3125 11.75q2.59375 3.65625 3.6875 5.625q1.53125 -2.5 3.625 -5.21875l9.218506 -12.15625l6.59375 0l-16.093506 21.59375l17.343506 24.21875l-7.5 0l-11.531006 -16.34375q-0.96875 -1.40625 -2.0 -3.0625q-1.53125 2.5 -2.1875 3.4375l-11.5 15.96875l-7.28125 0z" fill-rule="nonzero"></path><path fill="#93c47d" d="m397.5223 480.10892l0 0c0 -40.434204 32.77841 -73.212585 73.212585 -73.212585l0 0c19.417206 0 38.039124 7.71344 51.769135 21.443481c13.7300415 13.730011 21.443481 32.35193 21.443481 51.769104l0 0c0 40.434235 -32.77841 73.212616 -73.212616 73.212616l0 0c-40.434174 0 -73.212585 -32.77838 -73.212585 -73.212616z" fill-rule="nonzero"></path><path stroke="#000000" stroke-width="2.0" stroke-linejoin="round" stroke-linecap="butt" d="m397.5223 480.10892l0 0c0 -40.434204 32.77841 -73.212585 73.212585 -73.212585l0 0c19.417206 0 38.039124 7.71344 51.769135 21.443481c13.7300415 13.730011 21.443481 32.35193 21.443481 51.769104l0 0c0 40.434235 -32.77841 73.212616 -73.212616 73.212616l0 0c-40.434174 0 -73.212585 -32.77838 -73.212585 -73.212616z" fill-rule="nonzero"></path><path fill="#000000" d="m455.59427 480.45517q0 -8.125 1.671875 -13.078125q1.671875 -4.953125 4.96875 -7.640625q3.296875 -2.6875 8.296875 -2.6875q3.6875 0 6.46875 1.484375q2.78125 1.484375 4.59375 4.28125q1.8125 2.796875 2.84375 6.8125q1.03125 4.015625 1.03125 10.828125q0 8.0625 -1.65625 13.015625q-1.65625 4.953125 -4.953125 7.65625q-3.296875 2.703125 -8.328125 2.703125q-6.625 0 -10.40625 -4.75q-4.53125 -5.71875 -4.53125 -18.625zm5.78125 0q0 11.28125 2.640625 15.015625q2.640625 3.734375 6.515625 3.734375q3.875 0 6.515625 -3.75q2.640625 -3.75 2.640625 -15.0q0 -11.3125 -2.640625 -15.03125q-2.640625 -3.71875 -6.578125 -3.71875q-3.875 0 -6.1875 3.28125q-2.90625 4.1875 -2.90625 15.46875z" fill-rule="nonzero"></path><path fill="#e06666" d="m397.5223 290.9252l0 0c0 -40.434204 32.77841 -73.2126 73.212585 -73.2126l0 0c19.417206 0 38.039124 7.71344 51.769135 21.443466c13.7300415 13.730026 21.443481 32.35193 21.443481 51.769135l0 0c0 40.434204 -32.77841 73.212585 -73.212616 73.212585l0 0c-40.434174 0 -73.212585 -32.77838 -73.212585 -73.212585z" fill-rule="nonzero"></path><path stroke="#000000" stroke-width="2.0" stroke-linejoin="round" stroke-linecap="butt" d="m397.5223 290.9252l0 0c0 -40.434204 32.77841 -73.2126 73.212585 -73.2126l0 0c19.417206 0 38.039124 7.71344 51.769135 21.443466c13.7300415 13.730026 21.443481 32.35193 21.443481 51.769135l0 0c0 40.434204 -32.77841 73.212585 -73.212616 73.212585l0 0c-40.434174 0 -73.212585 -32.77838 -73.212585 -73.212585z" fill-rule="nonzero"></path><path fill="#000000" d="m476.78177 313.8652l-5.625 0l0 -35.84375q-2.03125 1.9375 -5.328125 3.875q-3.296875 1.9375 -5.921875 2.90625l0 -5.4375q4.71875 -2.21875 8.25 -5.375q3.53125 -3.15625 5.0 -6.125l3.625 0l0 46.0z" fill-rule="nonzero"></path><path fill="#e06666" d="m397.5223 669.29266l0 0c0 -40.434204 32.77841 -73.212585 73.212585 -73.212585l0 0c19.417206 0 38.039124 7.71344 51.769135 21.44342c13.7300415 13.7300415 21.443481 32.35199 21.443481 51.769165l0 0c0 40.434204 -32.77841 73.212585 -73.212616 73.212585l0 0c-40.434174 0 -73.212585 -32.77838 -73.212585 -73.212585z" fill-rule="nonzero"></path><path stroke="#000000" stroke-width="2.0" stroke-linejoin="round" stroke-linecap="butt" d="m397.5223 669.29266l0 0c0 -40.434204 32.77841 -73.212585 73.212585 -73.212585l0 0c19.417206 0 38.039124 7.71344 51.769135 21.44342c13.7300415 13.7300415 21.443481 32.35199 21.443481 51.769165l0 0c0 40.434204 -32.77841 73.212585 -73.212616 73.212585l0 0c-40.434174 0 -73.212585 -32.77838 -73.212585 -73.212585z" fill-rule="nonzero"></path><path fill="#000000" d="m485.15677 686.8264l0 5.40625l-30.28125 0q-0.0625 -2.03125 0.65625 -3.90625q1.15625 -3.09375 3.703125 -6.09375q2.546875 -3.0 7.359375 -6.9375q7.46875 -6.125 10.09375 -9.703125q2.625 -3.578125 2.625 -6.765625q0 -3.34375 -2.390625 -5.640625q-2.390625 -2.296875 -6.234375 -2.296875q-4.0625 0 -6.5 2.4375q-2.4375 2.4375 -2.46875 6.75l-5.78125 -0.59375q0.59375 -6.46875 4.46875 -9.859375q3.875 -3.390625 10.40625 -3.390625q6.59375 0 10.4375 3.65625q3.84375 3.65625 3.84375 9.0625q0 2.75 -1.125 5.40625q-1.125 2.65625 -3.734375 5.59375q-2.609375 2.9375 -8.671875 8.0625q-5.0625 4.25 -6.5 5.765625q-1.4375 1.515625 -2.375 3.046875l22.46875 0z" fill-rule="nonzero"></path><path fill="#93c47d" d="m1345.4094 482.063l0 0c0 -40.434204 32.778442 -73.212585 73.21265 -73.212585l0 0c19.417114 0 38.039062 7.71344 51.769043 21.44345c13.730103 13.7300415 21.443481 32.35196 21.443481 51.769135l0 0c0 40.434204 -32.77832 73.212585 -73.212524 73.212585l0 0c-40.434204 0 -73.21265 -32.77838 -73.21265 -73.212585z" fill-rule="nonzero"></path><path stroke="#000000" stroke-width="2.0" stroke-linejoin="round" stroke-linecap="butt" d="m1345.4094 482.063l0 0c0 -40.434204 32.778442 -73.212585 73.21265 -73.212585l0 0c19.417114 0 38.039062 7.71344 51.769043 21.44345c13.730103 13.7300415 21.443481 32.35196 21.443481 51.769135l0 0c0 40.434204 -32.77832 73.212585 -73.212524 73.212585l0 0c-40.434204 0 -73.21265 -32.77838 -73.21265 -73.212585z" fill-rule="nonzero"></path><path fill="#000000" d="m1403.4814 482.40924q0 -8.125 1.671875 -13.078125q1.671875 -4.953125 4.96875 -7.640625q3.296875 -2.6875 8.296875 -2.6875q3.6875 0 6.46875 1.484375q2.78125 1.484375 4.59375 4.28125q1.8125 2.796875 2.84375 6.8125q1.03125 4.015625 1.03125 10.828125q0 8.0625 -1.65625 13.015625q-1.65625 4.953125 -4.953125 7.65625q-3.296875 2.703125 -8.328125 2.703125q-6.625 0 -10.40625 -4.75q-4.53125 -5.71875 -4.53125 -18.625zm5.78125 0q0 11.28125 2.640625 15.015625q2.640625 3.734375 6.515625 3.734375q3.875 0 6.515625 -3.75q2.640625 -3.75 2.640625 -15.0q0 -11.3125 -2.640625 -15.03125q-2.640625 -3.71875 -6.578125 -3.71875q-3.875 0 -6.1875 3.28125q-2.90625 4.1875 -2.90625 15.46875z" fill-rule="nonzero"></path><path fill="#e06666" d="m1157.0552 482.063l0 0c0 -40.434204 32.77832 -73.212585 73.212524 -73.212585l0 0c19.417236 0 38.039062 7.71344 51.769165 21.44345c13.72998 13.7300415 21.443481 32.35196 21.443481 51.769135l0 0c0 40.434204 -32.778442 73.212585 -73.21265 73.212585l0 0c-40.434204 0 -73.212524 -32.77838 -73.212524 -73.212585z" fill-rule="nonzero"></path><path stroke="#000000" stroke-width="2.0" stroke-linejoin="round" stroke-linecap="butt" d="m1157.0552 482.063l0 0c0 -40.434204 32.77832 -73.212585 73.212524 -73.212585l0 0c19.417236 0 38.039062 7.71344 51.769165 21.44345c13.72998 13.7300415 21.443481 32.35196 21.443481 51.769135l0 0c0 40.434204 -32.778442 73.212585 -73.21265 73.212585l0 0c-40.434204 0 -73.212524 -32.77838 -73.212524 -73.212585z" fill-rule="nonzero"></path><path fill="#000000" d="m1236.3146 505.003l-5.625 0l0 -35.84375q-2.03125 1.9375 -5.328125 3.875q-3.296875 1.9375 -5.921875 2.90625l0 -5.4375q4.71875 -2.21875 8.25 -5.375q3.53125 -3.15625 5.0 -6.125l3.625 0l0 46.0z" fill-rule="nonzero"></path><path fill="#e06666" d="m1533.7638 482.063l0 0c0 -40.434204 32.778442 -73.212585 73.212524 -73.212585l0 0c19.417236 0 38.039185 7.71344 51.769165 21.44345c13.730103 13.7300415 21.443481 32.35196 21.443481 51.769135l0 0c0 40.434204 -32.778442 73.212585 -73.21265 73.212585l0 0c-40.434082 0 -73.212524 -32.77838 -73.212524 -73.212585z" fill-rule="nonzero"></path><path stroke="#000000" stroke-width="2.0" stroke-linejoin="round" stroke-linecap="butt" d="m1533.7638 482.063l0 0c0 -40.434204 32.778442 -73.212585 73.212524 -73.212585l0 0c19.417236 0 38.039185 7.71344 51.769165 21.44345c13.730103 13.7300415 21.443481 32.35196 21.443481 51.769135l0 0c0 40.434204 -32.778442 73.212585 -73.21265 73.212585l0 0c-40.434082 0 -73.212524 -32.77838 -73.212524 -73.212585z" fill-rule="nonzero"></path><path fill="#000000" d="m1621.3982 499.59674l0 5.40625l-30.28125 0q-0.0625 -2.03125 0.65625 -3.90625q1.15625 -3.09375 3.703125 -6.09375q2.546875 -3.0 7.359375 -6.9375q7.46875 -6.125 10.09375 -9.703125q2.625 -3.578125 2.625 -6.765625q0 -3.34375 -2.390625 -5.640625q-2.390625 -2.296875 -6.234375 -2.296875q-4.0625 0 -6.5 2.4375q-2.4375 2.4375 -2.46875 6.75l-5.78125 -0.59375q0.59375 -6.46875 4.46875 -9.859375q3.875 -3.390625 10.40625 -3.390625q6.59375 0 10.4375 3.65625q3.84375 3.65625 3.84375 9.0625q0 2.75 -1.125 5.40625q-1.125 2.65625 -3.734375 5.59375q-2.609375 2.9375 -8.671875 8.0625q-5.0625 4.25 -6.5 5.765625q-1.4375 1.515625 -2.375 3.046875l22.46875 0z" fill-rule="nonzero"></path><path fill="#93c47d" d="m2293.2966 484.3517l0 0c0 -40.434204 32.77832 -73.212616 73.21265 -73.212616l0 0c19.416992 0 38.039062 7.7134705 51.769043 21.443481c13.72998 13.7300415 21.44336 32.35193 21.44336 51.769135l0 0c0 40.434174 -32.77832 73.212616 -73.2124 73.212616l0 0c-40.434326 0 -73.21265 -32.778442 -73.21265 -73.212616z" fill-rule="nonzero"></path><path stroke="#000000" stroke-width="2.0" stroke-linejoin="round" stroke-linecap="butt" d="m2293.2966 484.3517l0 0c0 -40.434204 32.77832 -73.212616 73.21265 -73.212616l0 0c19.416992 0 38.039062 7.7134705 51.769043 21.443481c13.72998 13.7300415 21.44336 32.35193 21.44336 51.769135l0 0c0 40.434174 -32.77832 73.212616 -73.2124 73.212616l0 0c-40.434326 0 -73.21265 -32.778442 -73.21265 -73.212616z" fill-rule="nonzero"></path><path fill="#000000" d="m2351.3687 484.69797q0 -8.125 1.671875 -13.078125q1.671875 -4.953125 4.96875 -7.640625q3.296875 -2.6875 8.296875 -2.6875q3.6875 0 6.46875 1.484375q2.78125 1.484375 4.59375 4.28125q1.8125 2.796875 2.84375 6.8125q1.03125 4.015625 1.03125 10.828125q0 8.0625 -1.65625 13.015625q-1.65625 4.953125 -4.953125 7.65625q-3.296875 2.703125 -8.328125 2.703125q-6.625 0 -10.40625 -4.75q-4.53125 -5.71875 -4.53125 -18.625zm5.78125 0q0 11.28125 2.640625 15.015625q2.640625 3.734375 6.515625 3.734375q3.875 0 6.515625 -3.75q2.640625 -3.75 2.640625 -15.0q0 -11.3125 -2.640625 -15.03125q-2.640625 -3.71875 -6.578125 -3.71875q-3.875 0 -6.1875 3.28125q-2.90625 4.1875 -2.90625 15.46875z" fill-rule="nonzero"></path><path fill="#e06666" d="m2104.9421 484.3517l0 0c0 -40.434204 32.778564 -73.212616 73.21265 -73.212616l0 0c19.417236 0 38.039062 7.7134705 51.769287 21.443481c13.72998 13.7300415 21.44336 32.35193 21.44336 51.769135l0 0c0 40.434174 -32.77832 73.212616 -73.21265 73.212616l0 0c-40.434082 0 -73.21265 -32.778442 -73.21265 -73.212616z" fill-rule="nonzero"></path><path stroke="#000000" stroke-width="2.0" stroke-linejoin="round" stroke-linecap="butt" d="m2104.9421 484.3517l0 0c0 -40.434204 32.778564 -73.212616 73.21265 -73.212616l0 0c19.417236 0 38.039062 7.7134705 51.769287 21.443481c13.72998 13.7300415 21.44336 32.35193 21.44336 51.769135l0 0c0 40.434174 -32.77832 73.212616 -73.21265 73.212616l0 0c-40.434082 0 -73.21265 -32.778442 -73.21265 -73.212616z" fill-rule="nonzero"></path><path fill="#000000" d="m2192.5767 501.88547l0 5.40625l-30.28125 0q-0.0625 -2.03125 0.65625 -3.90625q1.15625 -3.09375 3.703125 -6.09375q2.546875 -3.0 7.359375 -6.9375q7.46875 -6.125 10.09375 -9.703125q2.625 -3.578125 2.625 -6.765625q0 -3.34375 -2.390625 -5.640625q-2.390625 -2.296875 -6.234375 -2.296875q-4.0625 0 -6.5 2.4375q-2.4375 2.4375 -2.46875 6.75l-5.78125 -0.59375q0.59375 -6.46875 4.46875 -9.859375q3.875 -3.390625 10.40625 -3.390625q6.59375 0 10.4375 3.65625q3.84375 3.65625 3.84375 9.0625q0 2.75 -1.125 5.40625q-1.125 2.65625 -3.734375 5.59375q-2.609375 2.9375 -8.671875 8.0625q-5.0625 4.25 -6.5 5.765625q-1.4375 1.515625 -2.375 3.046875l22.46875 0z" fill-rule="nonzero"></path><path fill="#e06666" d="m2481.651 484.3517l0 0c0 -40.434204 32.77832 -73.212616 73.21265 -73.212616l0 0c19.417236 0 38.039062 7.7134705 51.769043 21.443481c13.72998 13.7300415 21.443604 32.35193 21.443604 51.769135l0 0c0 40.434174 -32.778564 73.212616 -73.21265 73.212616l0 0c-40.434326 0 -73.21265 -32.778442 -73.21265 -73.212616z" fill-rule="nonzero"></path><path stroke="#000000" stroke-width="2.0" stroke-linejoin="round" stroke-linecap="butt" d="m2481.651 484.3517l0 0c0 -40.434204 32.77832 -73.212616 73.21265 -73.212616l0 0c19.417236 0 38.039062 7.7134705 51.769043 21.443481c13.72998 13.7300415 21.443604 32.35193 21.443604 51.769135l0 0c0 40.434174 -32.778564 73.212616 -73.21265 73.212616l0 0c-40.434326 0 -73.21265 -32.778442 -73.21265 -73.212616z" fill-rule="nonzero"></path><path fill="#000000" d="m2539.7542 495.19797l5.625 -0.75q0.96875 4.78125 3.296875 6.890625q2.328125 2.109375 5.671875 2.109375q3.96875 0 6.703125 -2.75q2.734375 -2.75 2.734375 -6.8125q0 -3.875 -2.53125 -6.390625q-2.53125 -2.515625 -6.4375 -2.515625q-1.59375 0 -3.96875 0.625l0.625 -4.9375q0.5625 0.0625 0.90625 0.0625q3.59375 0 6.46875 -1.875q2.875 -1.875 2.875 -5.78125q0 -3.09375 -2.09375 -5.125q-2.09375 -2.03125 -5.40625 -2.03125q-3.28125 0 -5.46875 2.0625q-2.1875 2.0625 -2.8125 6.1875l-5.625 -1.0q1.03125 -5.65625 4.6875 -8.765625q3.65625 -3.109375 9.09375 -3.109375q3.75 0 6.90625 1.609375q3.15625 1.609375 4.828125 4.390625q1.671875 2.78125 1.671875 5.90625q0 2.96875 -1.59375 5.40625q-1.59375 2.4375 -4.71875 3.875q4.0625 0.9375 6.3125 3.890625q2.25 2.953125 2.25 7.390625q0 6.0 -4.375 10.171875q-4.375 4.171875 -11.0625 4.171875q-6.03125 0 -10.015625 -3.59375q-3.984375 -3.59375 -4.546875 -9.3125z" fill-rule="nonzero"></path><path fill="#e06666" d="m2293.2979 290.9252l0 0c0 -40.434204 32.778564 -73.2126 73.21265 -73.2126l0 0c19.417236 0 38.039062 7.71344 51.769043 21.443466c13.730225 13.730026 21.443604 32.35193 21.443604 51.769135l0 0c0 40.434204 -32.778564 73.212585 -73.21265 73.212585l0 0c-40.434082 0 -73.21265 -32.77838 -73.21265 -73.212585z" fill-rule="nonzero"></path><path stroke="#000000" stroke-width="2.0" stroke-linejoin="round" stroke-linecap="butt" d="m2293.2979 290.9252l0 0c0 -40.434204 32.778564 -73.2126 73.21265 -73.2126l0 0c19.417236 0 38.039062 7.71344 51.769043 21.443466c13.730225 13.730026 21.443604 32.35193 21.443604 51.769135l0 0c0 40.434204 -32.778564 73.212585 -73.21265 73.212585l0 0c-40.434082 0 -73.21265 -32.77838 -73.21265 -73.212585z" fill-rule="nonzero"></path><path fill="#000000" d="m2372.5574 313.8652l-5.625 0l0 -35.84375q-2.03125 1.9375 -5.328125 3.875q-3.296875 1.9375 -5.921875 2.90625l0 -5.4375q4.71875 -2.21875 8.25 -5.375q3.53125 -3.15625 5.0 -6.125l3.625 0l0 46.0z" fill-rule="nonzero"></path><path fill="#e06666" d="m2293.2979 669.29266l0 0c0 -40.434204 32.778564 -73.212585 73.21265 -73.212585l0 0c19.417236 0 38.039062 7.71344 51.769043 21.44342c13.730225 13.7300415 21.443604 32.35199 21.443604 51.769165l0 0c0 40.434204 -32.778564 73.212585 -73.21265 73.212585l0 0c-40.434082 0 -73.21265 -32.77838 -73.21265 -73.212585z" fill-rule="nonzero"></path><path stroke="#000000" stroke-width="2.0" stroke-linejoin="round" stroke-linecap="butt" d="m2293.2979 669.29266l0 0c0 -40.434204 32.778564 -73.212585 73.21265 -73.212585l0 0c19.417236 0 38.039062 7.71344 51.769043 21.44342c13.730225 13.7300415 21.443604 32.35199 21.443604 51.769165l0 0c0 40.434204 -32.778564 73.212585 -73.21265 73.212585l0 0c-40.434082 0 -73.21265 -32.77838 -73.21265 -73.212585z" fill-rule="nonzero"></path><path fill="#000000" d="m2369.4011 692.23267l0 -10.96875l-19.875 0l0 -5.15625l20.90625 -29.6875l4.59375 0l0 29.6875l6.1875 0l0 5.15625l-6.1875 0l0 10.96875l-5.625 0zm0 -16.125l0 -20.65625l-14.34375 20.65625l14.34375 0z" fill-rule="nonzero"></path><path fill="#93c47d" d="m3244.9382 484.47244l0 0c0 -40.434204 32.778564 -73.212585 73.21265 -73.212585l0 0c19.417236 0 38.039062 7.71344 51.769043 21.44345c13.730225 13.7300415 21.443604 32.35196 21.443604 51.769135l0 0c0 40.434174 -32.77832 73.212616 -73.21265 73.212616l0 0c-40.434082 0 -73.21265 -32.778442 -73.21265 -73.212616z" fill-rule="nonzero"></path><path stroke="#000000" stroke-width="2.0" stroke-linejoin="round" stroke-linecap="butt" d="m3244.9382 484.47244l0 0c0 -40.434204 32.778564 -73.212585 73.21265 -73.212585l0 0c19.417236 0 38.039062 7.71344 51.769043 21.44345c13.730225 13.7300415 21.443604 32.35196 21.443604 51.769135l0 0c0 40.434174 -32.77832 73.212616 -73.21265 73.212616l0 0c-40.434082 0 -73.21265 -32.778442 -73.21265 -73.212616z" fill-rule="nonzero"></path><path fill="#000000" d="m3303.0103 484.8187q0 -8.125 1.671875 -13.078125q1.671875 -4.953125 4.96875 -7.640625q3.296875 -2.6875 8.296875 -2.6875q3.6875 0 6.46875 1.484375q2.78125 1.484375 4.59375 4.28125q1.8125 2.796875 2.84375 6.8125q1.03125 4.015625 1.03125 10.828125q0 8.0625 -1.65625 13.015625q-1.65625 4.953125 -4.953125 7.65625q-3.296875 2.703125 -8.328125 2.703125q-6.625 0 -10.40625 -4.75q-4.53125 -5.71875 -4.53125 -18.625zm5.78125 0q0 11.28125 2.640625 15.015625q2.640625 3.734375 6.515625 3.734375q3.875 0 6.515625 -3.75q2.640625 -3.75 2.640625 -15.0q0 -11.3125 -2.640625 -15.03125q-2.640625 -3.71875 -6.578125 -3.71875q-3.875 0 -6.1875 3.28125q-2.90625 4.1875 -2.90625 15.46875z" fill-rule="nonzero"></path><path fill="#e06666" d="m3055.9922 291.04593l0 0c0 -40.434204 32.77832 -73.2126 73.21265 -73.2126l0 0c19.416992 0 38.039062 7.713455 51.769043 21.443481c13.72998 13.730026 21.44336 32.351944 21.44336 51.76912l0 0c0 40.434204 -32.77832 73.212616 -73.2124 73.212616l0 0c-40.434326 0 -73.21265 -32.77841 -73.21265 -73.212616z" fill-rule="nonzero"></path><path stroke="#000000" stroke-width="2.0" stroke-linejoin="round" stroke-linecap="butt" d="m3055.9922 291.04593l0 0c0 -40.434204 32.77832 -73.2126 73.21265 -73.2126l0 0c19.416992 0 38.039062 7.713455 51.769043 21.443481c13.72998 13.730026 21.44336 32.351944 21.44336 51.76912l0 0c0 40.434204 -32.77832 73.212616 -73.2124 73.212616l0 0c-40.434326 0 -73.21265 -32.77841 -73.21265 -73.212616z" fill-rule="nonzero"></path><path fill="#000000" d="m3135.2517 313.98593l-5.625 0l0 -35.84375q-2.03125 1.9375 -5.328125 3.875q-3.296875 1.9375 -5.921875 2.90625l0 -5.4375q4.71875 -2.21875 8.25 -5.375q3.53125 -3.15625 5.0 -6.125l3.625 0l0 46.0z" fill-rule="nonzero"></path><path fill="#e06666" d="m3433.8872 669.17194l0 0c0 -40.434204 32.77832 -73.21265 73.21265 -73.21265l0 0c19.416992 0 38.039062 7.713501 51.769043 21.443481c13.72998 13.7300415 21.44336 32.35193 21.44336 51.769165l0 0c0 40.434204 -32.77832 73.212585 -73.2124 73.212585l0 0c-40.434326 0 -73.21265 -32.77838 -73.21265 -73.212585z" fill-rule="nonzero"></path><path stroke="#000000" stroke-width="2.0" stroke-linejoin="round" stroke-linecap="butt" d="m3433.8872 669.17194l0 0c0 -40.434204 32.77832 -73.21265 73.21265 -73.21265l0 0c19.416992 0 38.039062 7.713501 51.769043 21.443481c13.72998 13.7300415 21.44336 32.35193 21.44336 51.769165l0 0c0 40.434204 -32.77832 73.212585 -73.2124 73.212585l0 0c-40.434326 0 -73.21265 -32.77838 -73.21265 -73.212585z" fill-rule="nonzero"></path><path fill="#000000" d="m3509.9905 692.11194l0 -10.96875l-19.875 0l0 -5.15625l20.90625 -29.6875l4.59375 0l0 29.6875l6.1875 0l0 5.15625l-6.1875 0l0 10.96875l-5.625 0zm0 -16.125l0 -20.65625l-14.34375 20.65625l14.34375 0z" fill-rule="nonzero"></path><path fill="#e06666" d="m3433.8872 291.04593l0 0c0 -40.434204 32.77832 -73.2126 73.21265 -73.2126l0 0c19.416992 0 38.039062 7.713455 51.769043 21.443481c13.72998 13.730026 21.44336 32.351944 21.44336 51.76912l0 0c0 40.434204 -32.77832 73.212616 -73.2124 73.212616l0 0c-40.434326 0 -73.21265 -32.77841 -73.21265 -73.212616z" fill-rule="nonzero"></path><path stroke="#000000" stroke-width="2.0" stroke-linejoin="round" stroke-linecap="butt" d="m3433.8872 291.04593l0 0c0 -40.434204 32.77832 -73.2126 73.21265 -73.2126l0 0c19.416992 0 38.039062 7.713455 51.769043 21.443481c13.72998 13.730026 21.44336 32.351944 21.44336 51.76912l0 0c0 40.434204 -32.77832 73.212616 -73.2124 73.212616l0 0c-40.434326 0 -73.21265 -32.77841 -73.21265 -73.212616z" fill-rule="nonzero"></path><path fill="#000000" d="m3521.5217 308.57968l0 5.40625l-30.28125 0q-0.0625 -2.03125 0.65625 -3.90625q1.15625 -3.09375 3.703125 -6.09375q2.546875 -3.0 7.359375 -6.9375q7.46875 -6.125 10.09375 -9.703125q2.625 -3.578125 2.625 -6.765625q0 -3.34375 -2.390625 -5.640625q-2.390625 -2.296875 -6.234375 -2.296875q-4.0625 0 -6.5 2.4375q-2.4375 2.4375 -2.46875 6.75l-5.78125 -0.59375q0.59375 -6.46875 4.46875 -9.859375q3.875 -3.390625 10.40625 -3.390625q6.59375 0 10.4375 3.65625q3.84375 3.65625 3.84375 9.0625q0 2.75 -1.125 5.40625q-1.125 2.65625 -3.734375 5.59375q-2.609375 2.9375 -8.671875 8.0625q-5.0625 4.25 -6.5 5.765625q-1.4375 1.515625 -2.375 3.046875l22.46875 0z" fill-rule="nonzero"></path><path fill="#e06666" d="m3055.9922 669.17194l0 0c0 -40.434204 32.77832 -73.21265 73.21265 -73.21265l0 0c19.416992 0 38.039062 7.713501 51.769043 21.443481c13.72998 13.7300415 21.44336 32.35193 21.44336 51.769165l0 0c0 40.434204 -32.77832 73.212585 -73.2124 73.212585l0 0c-40.434326 0 -73.21265 -32.77838 -73.21265 -73.212585z" fill-rule="nonzero"></path><path stroke="#000000" stroke-width="2.0" stroke-linejoin="round" stroke-linecap="butt" d="m3055.9922 669.17194l0 0c0 -40.434204 32.77832 -73.21265 73.21265 -73.21265l0 0c19.416992 0 38.039062 7.713501 51.769043 21.443481c13.72998 13.7300415 21.44336 32.35193 21.44336 51.769165l0 0c0 40.434204 -32.77832 73.212585 -73.2124 73.212585l0 0c-40.434326 0 -73.21265 -32.77838 -73.21265 -73.212585z" fill-rule="nonzero"></path><path fill="#000000" d="m3114.0955 680.0182l5.625 -0.75q0.96875 4.78125 3.296875 6.890625q2.328125 2.109375 5.671875 2.109375q3.96875 0 6.703125 -2.75q2.734375 -2.75 2.734375 -6.8125q0 -3.875 -2.53125 -6.390625q-2.53125 -2.515625 -6.4375 -2.515625q-1.59375 0 -3.96875 0.625l0.625 -4.9375q0.5625 0.0625 0.90625 0.0625q3.59375 0 6.46875 -1.875q2.875 -1.875 2.875 -5.78125q0 -3.09375 -2.09375 -5.125q-2.09375 -2.03125 -5.40625 -2.03125q-3.28125 0 -5.46875 2.0625q-2.1875 2.0625 -2.8125 6.1875l-5.625 -1.0q1.03125 -5.65625 4.6875 -8.765625q3.65625 -3.109375 9.09375 -3.109375q3.75 0 6.90625 1.609375q3.15625 1.609375 4.828125 4.390625q1.671875 2.78125 1.671875 5.90625q0 2.96875 -1.59375 5.40625q-1.59375 2.4375 -4.71875 3.875q4.0625 0.9375 6.3125 3.890625q2.25 2.953125 2.25 7.390625q0 6.0 -4.375 10.171875q-4.375 4.171875 -11.0625 4.171875q-6.03125 0 -10.015625 -3.59375q-3.984375 -3.59375 -4.546875 -9.3125z" fill-rule="nonzero"></path><path fill="#93c47d" d="m4210.9043 500.042l0 0c0 -40.434204 32.77832 -73.212585 73.2124 -73.212585l0 0c19.41748 0 38.039062 7.71344 51.769043 21.44345c13.72998 13.7300415 21.443848 32.35196 21.443848 51.769135l0 0c0 40.434204 -32.77881 73.212585 -73.21289 73.212585l0 0c-40.434082 0 -73.2124 -32.77838 -73.2124 -73.212585z" fill-rule="nonzero"></path><path stroke="#000000" stroke-width="2.0" stroke-linejoin="round" stroke-linecap="butt" d="m4210.9043 500.042l0 0c0 -40.434204 32.77832 -73.212585 73.2124 -73.212585l0 0c19.41748 0 38.039062 7.71344 51.769043 21.44345c13.72998 13.7300415 21.443848 32.35196 21.443848 51.769135l0 0c0 40.434204 -32.77881 73.212585 -73.21289 73.212585l0 0c-40.434082 0 -73.2124 -32.77838 -73.2124 -73.212585z" fill-rule="nonzero"></path><path fill="#000000" d="m4268.976 500.38824q0 -8.125 1.671875 -13.078125q1.671875 -4.953125 4.96875 -7.640625q3.296875 -2.6875 8.296875 -2.6875q3.6875 0 6.46875 1.484375q2.78125 1.484375 4.59375 4.28125q1.8125 2.796875 2.84375 6.8125q1.03125 4.015625 1.03125 10.828125q0 8.0625 -1.65625 13.015625q-1.65625 4.953125 -4.953125 7.65625q-3.296875 2.703125 -8.328125 2.703125q-6.625 0 -10.40625 -4.75q-4.53125 -5.71875 -4.53125 -18.625zm5.78125 0q0 11.28125 2.640625 15.015625q2.640625 3.734375 6.515625 3.734375q3.875 0 6.515625 -3.75q2.640625 -3.75 2.640625 -15.0q0 -11.3125 -2.640625 -15.03125q-2.640625 -3.71875 -6.578125 -3.71875q-3.875 0 -6.1875 3.28125q-2.90625 4.1875 -2.90625 15.46875z" fill-rule="nonzero"></path><path fill="#e06666" d="m4022.5498 500.042l0 0c0 -40.434204 32.778564 -73.212585 73.21265 -73.212585l0 0c19.417236 0 38.039307 7.71344 51.769287 21.44345c13.72998 13.7300415 21.44336 32.35196 21.44336 51.769135l0 0c0 40.434204 -32.77832 73.212585 -73.21265 73.212585l0 0c-40.434082 0 -73.21265 -32.77838 -73.21265 -73.212585z" fill-rule="nonzero"></path><path stroke="#000000" stroke-width="2.0" stroke-linejoin="round" stroke-linecap="butt" d="m4022.5498 500.042l0 0c0 -40.434204 32.778564 -73.212585 73.21265 -73.212585l0 0c19.417236 0 38.039307 7.71344 51.769287 21.44345c13.72998 13.7300415 21.44336 32.35196 21.44336 51.769135l0 0c0 40.434204 -32.77832 73.212585 -73.21265 73.212585l0 0c-40.434082 0 -73.21265 -32.77838 -73.21265 -73.212585z" fill-rule="nonzero"></path><path fill="#000000" d="m4098.6533 522.982l0 -10.96875l-19.875244 0l0 -5.15625l20.906494 -29.6875l4.59375 0l0 29.6875l6.1875 0l0 5.15625l-6.1875 0l0 10.96875l-5.625 0zm0 -16.125l0 -20.65625l-14.343994 20.65625l14.343994 0z" fill-rule="nonzero"></path><path fill="#e06666" d="m4210.9053 306.61548l0 0c0 -40.434204 32.77881 -73.212585 73.21289 -73.212585l0 0c19.416992 0 38.039062 7.71344 51.769043 21.443466c13.72998 13.730026 21.44336 32.351944 21.44336 51.76912l0 0c0 40.434204 -32.77832 73.212616 -73.2124 73.212616l0 0c-40.434082 0 -73.21289 -32.77841 -73.21289 -73.212616z" fill-rule="nonzero"></path><path stroke="#000000" stroke-width="2.0" stroke-linejoin="round" stroke-linecap="butt" d="m4210.9053 306.61548l0 0c0 -40.434204 32.77881 -73.212585 73.21289 -73.212585l0 0c19.416992 0 38.039062 7.71344 51.769043 21.443466c13.72998 13.730026 21.44336 32.351944 21.44336 51.76912l0 0c0 40.434204 -32.77832 73.212616 -73.2124 73.212616l0 0c-40.434082 0 -73.21289 -32.77841 -73.21289 -73.212616z" fill-rule="nonzero"></path><path fill="#000000" d="m4298.54 324.14923l0 5.40625l-30.28125 0q-0.0625 -2.03125 0.65625 -3.90625q1.15625 -3.09375 3.703125 -6.09375q2.546875 -3.0 7.359375 -6.9375q7.46875 -6.125 10.09375 -9.703125q2.625 -3.578125 2.625 -6.765625q0 -3.34375 -2.390625 -5.640625q-2.390625 -2.296875 -6.234375 -2.296875q-4.0625 0 -6.5 2.4375q-2.4375 2.4375 -2.46875 6.75l-5.78125 -0.59375q0.59375 -6.46875 4.46875 -9.859375q3.875 -3.390625 10.40625 -3.390625q6.59375 0 10.4375 3.65625q3.84375 3.65625 3.84375 9.0625q0 2.75 -1.125 5.40625q-1.125 2.65625 -3.734375 5.59375q-2.609375 2.9375 -8.671875 8.0625q-5.0625 4.25 -6.5 5.765625q-1.4375 1.515625 -2.375 3.046875l22.46875 0z" fill-rule="nonzero"></path><path fill="#e06666" d="m4210.9053 684.9829l0 0c0 -40.434143 32.77881 -73.212585 73.21289 -73.212585l0 0c19.416992 0 38.039062 7.71344 51.769043 21.443481c13.72998 13.7300415 21.44336 32.35193 21.44336 51.769104l0 0c0 40.434204 -32.77832 73.21265 -73.2124 73.21265l0 0c-40.434082 0 -73.21289 -32.778442 -73.21289 -73.21265z" fill-rule="nonzero"></path><path stroke="#000000" stroke-width="2.0" stroke-linejoin="round" stroke-linecap="butt" d="m4210.9053 684.9829l0 0c0 -40.434143 32.77881 -73.212585 73.21289 -73.212585l0 0c19.416992 0 38.039062 7.71344 51.769043 21.443481c13.72998 13.7300415 21.44336 32.35193 21.44336 51.769104l0 0c0 40.434204 -32.77832 73.21265 -73.2124 73.21265l0 0c-40.434082 0 -73.21289 -32.778442 -73.21289 -73.21265z" fill-rule="nonzero"></path><path fill="#000000" d="m4269.3525 668.1104l0 -5.40625l29.65625 0l0 4.375q-4.375 4.65625 -8.671875 12.375q-4.296875 7.71875 -6.640625 15.875q-1.6875 5.75 -2.15625 12.59375l-5.78125 0q0.09375 -5.40625 2.125 -13.0625q2.03125 -7.65625 5.828125 -14.765625q3.796875 -7.109375 8.078125 -11.984375l-22.4375 0z" fill-rule="nonzero"></path><path fill="#e06666" d="m4399.2583 500.042l0 0c0 -40.434204 32.77881 -73.212585 73.21289 -73.212585l0 0c19.416992 0 38.039062 7.71344 51.769043 21.44345c13.72998 13.7300415 21.44336 32.35196 21.44336 51.769135l0 0c0 40.434204 -32.77832 73.212585 -73.2124 73.212585l0 0c-40.434082 0 -73.21289 -32.77838 -73.21289 -73.212585z" fill-rule="nonzero"></path><path stroke="#000000" stroke-width="2.0" stroke-linejoin="round" stroke-linecap="butt" d="m4399.2583 500.042l0 0c0 -40.434204 32.77881 -73.212585 73.21289 -73.212585l0 0c19.416992 0 38.039062 7.71344 51.769043 21.44345c13.72998 13.7300415 21.44336 32.35196 21.44336 51.769135l0 0c0 40.434204 -32.77832 73.212585 -73.2124 73.212585l0 0c-40.434082 0 -73.21289 -32.77838 -73.21289 -73.212585z" fill-rule="nonzero"></path><path fill="#000000" d="m4457.3306 510.982l5.90625 -0.5q0.65625 4.3125 3.046875 6.484375q2.390625 2.171875 5.765625 2.171875q4.0625 0 6.875 -3.0625q2.8125 -3.0625 2.8125 -8.125q0 -4.8125 -2.703125 -7.59375q-2.703125 -2.78125 -7.078125 -2.78125q-2.71875 0 -4.90625 1.234375q-2.1875 1.234375 -3.4375 3.203125l-5.28125 -0.6875l4.4375 -23.53125l22.78125 0l0 5.375l-18.28125 0l-2.46875 12.3125q4.125 -2.875 8.65625 -2.875q6.0 0 10.125 4.15625q4.125 4.15625 4.125 10.6875q0 6.21875 -3.625 10.75q-4.40625 5.5625 -12.03125 5.5625q-6.25 0 -10.203125 -3.5q-3.953125 -3.5 -4.515625 -9.28125z" fill-rule="nonzero"></path><path fill="#e06666" d="m4021.958 306.61548l0 0c0 -40.434204 32.77832 -73.212585 73.21265 -73.212585l0 0c19.417236 0 38.03882 7.71344 51.769287 21.443466c13.72998 13.730026 21.44336 32.351944 21.44336 51.76912l0 0c0 40.434204 -32.77832 73.212616 -73.21265 73.212616l0 0c-40.434326 0 -73.21265 -32.77841 -73.21265 -73.212616z" fill-rule="nonzero"></path><path stroke="#000000" stroke-width="2.0" stroke-linejoin="round" stroke-linecap="butt" d="m4021.958 306.61548l0 0c0 -40.434204 32.77832 -73.212585 73.21265 -73.212585l0 0c19.417236 0 38.03882 7.71344 51.769287 21.443466c13.72998 13.730026 21.44336 32.351944 21.44336 51.76912l0 0c0 40.434204 -32.77832 73.212616 -73.21265 73.212616l0 0c-40.434326 0 -73.21265 -32.77841 -73.21265 -73.212616z" fill-rule="nonzero"></path><path fill="#000000" d="m4101.2173 329.55548l-5.624756 0l0 -35.84375q-2.03125 1.9375 -5.328125 3.875q-3.296875 1.9375 -5.921875 2.90625l0 -5.4375q4.71875 -2.21875 8.25 -5.375q3.5310059 -3.15625 4.999756 -6.125l3.625 0l0 46.0z" fill-rule="nonzero"></path><path fill="#e06666" d="m4399.853 684.74146l0 0c0 -40.434204 32.77832 -73.212585 73.2124 -73.212585l0 0c19.41748 0 38.039062 7.71344 51.76953 21.443481c13.72998 13.7300415 21.44336 32.35193 21.44336 51.769104l0 0c0 40.434204 -32.77832 73.212585 -73.21289 73.212585l0 0c-40.434082 0 -73.2124 -32.77838 -73.2124 -73.212585z" fill-rule="nonzero"></path><path stroke="#000000" stroke-width="2.0" stroke-linejoin="round" stroke-linecap="butt" d="m4399.853 684.74146l0 0c0 -40.434204 32.77832 -73.212585 73.2124 -73.212585l0 0c19.41748 0 38.039062 7.71344 51.76953 21.443481c13.72998 13.7300415 21.44336 32.35193 21.44336 51.769104l0 0c0 40.434204 -32.77832 73.212585 -73.21289 73.212585l0 0c-40.434082 0 -73.2124 -32.77838 -73.2124 -73.212585z" fill-rule="nonzero"></path><path fill="#000000" d="m4466.581 682.8377q-3.5 -1.28125 -5.1875 -3.65625q-1.6875 -2.375 -1.6875 -5.6875q0 -5.0 3.59375 -8.40625q3.59375 -3.40625 9.5625 -3.40625q6.0 0 9.65625 3.484375q3.65625 3.484375 3.65625 8.484375q0 3.1875 -1.671875 5.546875q-1.671875 2.359375 -5.078125 3.640625q4.21875 1.375 6.421875 4.4375q2.203125 3.0625 2.203125 7.3125q0 5.875 -4.15625 9.875q-4.15625 4.0 -10.9375 4.0q-6.78125 0 -10.9375 -4.015625q-4.15625 -4.015625 -4.15625 -10.015625q0 -4.46875 2.265625 -7.484375q2.265625 -3.015625 6.453125 -4.109375zm-1.125 -9.53125q0 3.25 2.09375 5.3125q2.09375 2.0625 5.4375 2.0625q3.25 0 5.328125 -2.046875q2.078125 -2.046875 2.078125 -5.015625q0 -3.09375 -2.140625 -5.203125q-2.140625 -2.109375 -5.328125 -2.109375q-3.21875 0 -5.34375 2.0625q-2.125 2.0625 -2.125 4.9375zm-1.8125 21.15625q0 2.40625 1.140625 4.65625q1.140625 2.25 3.390625 3.484375q2.25 1.234375 4.84375 1.234375q4.03125 0 6.65625 -2.59375q2.625 -2.59375 2.625 -6.59375q0 -4.0625 -2.703125 -6.71875q-2.703125 -2.65625 -6.765625 -2.65625q-3.96875 0 -6.578125 2.625q-2.609375 2.625 -2.609375 6.5625z" fill-rule="nonzero"></path><path fill="#e06666" d="m4021.958 684.74146l0 0c0 -40.434204 32.77832 -73.212585 73.21265 -73.212585l0 0c19.417236 0 38.03882 7.71344 51.769287 21.443481c13.72998 13.7300415 21.44336 32.35193 21.44336 51.769104l0 0c0 40.434204 -32.77832 73.212585 -73.21265 73.212585l0 0c-40.434326 0 -73.21265 -32.77838 -73.21265 -73.212585z" fill-rule="nonzero"></path><path stroke="#000000" stroke-width="2.0" stroke-linejoin="round" stroke-linecap="butt" d="m4021.958 684.74146l0 0c0 -40.434204 32.77832 -73.212585 73.21265 -73.212585l0 0c19.417236 0 38.03882 7.71344 51.769287 21.443481c13.72998 13.7300415 21.44336 32.35193 21.44336 51.769104l0 0c0 40.434204 -32.77832 73.212585 -73.21265 73.212585l0 0c-40.434326 0 -73.21265 -32.77838 -73.21265 -73.212585z" fill-rule="nonzero"></path><path fill="#000000" d="m4109.2173 673.0877l-5.59375 0.4375q-0.75 -3.3125 -2.125 -4.8125q-2.28125 -2.40625 -5.624756 -2.40625q-2.6875 0 -4.71875 1.5q-2.65625 1.9375 -4.1875 5.65625q-1.53125 3.71875 -1.59375 10.59375q2.03125 -3.09375 4.96875 -4.59375q2.9375 -1.5 6.156006 -1.5q5.625 0 9.578125 4.140625q3.953125 4.140625 3.953125 10.703125q0 4.3125 -1.859375 8.015625q-1.859375 3.703125 -5.109375 5.671875q-3.25 1.96875 -7.374756 1.96875q-7.03125 0 -11.46875 -5.171875q-4.4375 -5.171875 -4.4375 -17.046875q0 -13.28125 4.90625 -19.3125q4.28125 -5.25 11.531006 -5.25q5.40625 0 8.859375 3.03125q3.453125 3.03125 4.140625 8.375zm-22.968506 19.75q0 2.90625 1.234375 5.5625q1.234375 2.65625 3.453125 4.046875q2.21875 1.390625 4.65625 1.390625q3.5622559 0 6.124756 -2.875q2.5625 -2.875 2.5625 -7.8125q0 -4.75 -2.53125 -7.484375q-2.53125 -2.734375 -6.374756 -2.734375q-3.8125 0 -6.46875 2.734375q-2.65625 2.734375 -2.65625 7.171875z" fill-rule="nonzero"></path><path fill="#e06666" d="m4399.853 306.61548l0 0c0 -40.434204 32.77832 -73.212585 73.2124 -73.212585l0 0c19.41748 0 38.039062 7.71344 51.76953 21.443466c13.72998 13.730026 21.44336 32.351944 21.44336 51.76912l0 0c0 40.434204 -32.77832 73.212616 -73.21289 73.212616l0 0c-40.434082 0 -73.2124 -32.77841 -73.2124 -73.212616z" fill-rule="nonzero"></path><path stroke="#000000" stroke-width="2.0" stroke-linejoin="round" stroke-linecap="butt" d="m4399.853 306.61548l0 0c0 -40.434204 32.77832 -73.212585 73.2124 -73.212585l0 0c19.41748 0 38.039062 7.71344 51.76953 21.443466c13.72998 13.730026 21.44336 32.351944 21.44336 51.76912l0 0c0 40.434204 -32.77832 73.212616 -73.21289 73.212616l0 0c-40.434082 0 -73.2124 -32.77841 -73.2124 -73.212616z" fill-rule="nonzero"></path><path fill="#000000" d="m4457.956 317.46173l5.625 -0.75q0.96875 4.78125 3.296875 6.890625q2.328125 2.109375 5.671875 2.109375q3.96875 0 6.703125 -2.75q2.734375 -2.75 2.734375 -6.8125q0 -3.875 -2.53125 -6.390625q-2.53125 -2.515625 -6.4375 -2.515625q-1.59375 0 -3.96875 0.625l0.625 -4.9375q0.5625 0.0625 0.90625 0.0625q3.59375 0 6.46875 -1.875q2.875 -1.875 2.875 -5.78125q0 -3.09375 -2.09375 -5.125q-2.09375 -2.03125 -5.40625 -2.03125q-3.28125 0 -5.46875 2.0625q-2.1875 2.0625 -2.8125 6.1875l-5.625 -1.0q1.03125 -5.65625 4.6875 -8.765625q3.65625 -3.109375 9.09375 -3.109375q3.75 0 6.90625 1.609375q3.15625 1.609375 4.828125 4.390625q1.671875 2.78125 1.671875 5.90625q0 2.96875 -1.59375 5.40625q-1.59375 2.4375 -4.71875 3.875q4.0625 0.9375 6.3125 3.890625q2.25 2.953125 2.25 7.390625q0 6.0 -4.375 10.171875q-4.375 4.171875 -11.0625 4.171875q-6.03125 0 -10.015625 -3.59375q-3.984375 -3.59375 -4.546875 -9.3125z" fill-rule="nonzero"></path></g></svg>

