<?xml version="1.0" standalone="yes"?>

<svg version="1.1" viewBox="0.0 0.0 637.0 374.0" fill="none" stroke="none" stroke-linecap="square" stroke-miterlimit="10" xmlns="http://www.w3.org/2000/svg" xmlns:xlink="http://www.w3.org/1999/xlink"><clipPath id="p.0"><path d="m0 0l637.0 0l0 374.0l-637.0 0l0 -374.0z" clip-rule="nonzero"></path></clipPath><g clip-path="url(#p.0)"><path fill="#000000" fill-opacity="0.0" d="m0 0l637.10236 0l0 374.8714l-637.10236 0z" fill-rule="nonzero"></path><path fill="#ffffff" d="m343.20996 16.06168l277.51184 0l0 301.6378l-277.51184 0z" fill-rule="nonzero"></path><path stroke="#000000" stroke-width="2.0" stroke-linejoin="round" stroke-linecap="butt" d="m343.20996 16.06168l277.51184 0l0 301.6378l-277.51184 0z" fill-rule="nonzero"></path><path fill="#ffffff" d="m17.104986 16.062992l277.5118 0l0 301.6378l-277.5118 0z" fill-rule="nonzero"></path><path stroke="#000000" stroke-width="2.0" stroke-linejoin="round" stroke-linecap="butt" d="m17.104986 16.062992l277.5118 0l0 301.6378l-277.5118 0z" fill-rule="nonzero"></path><path fill="#4a86e8" d="m135.3727 110.19423l40.97638 0l0 40.97638l-40.97638 0z" fill-rule="nonzero"></path><path stroke="#000000" stroke-width="2.0" stroke-linejoin="round" stroke-linecap="butt" d="m135.3727 110.19423l40.97638 0l0 40.97638l-40.97638 0z" fill-rule="nonzero"></path><path fill="#ffffff" d="m152.70152 130.88867q0 -1.640625 0.328125 -2.640625q0.34375 -1.0156326 1.015625 -1.5625076q0.671875 -0.546875 1.6875 -0.546875q0.75 0 1.3125 0.3125q0.5625 0.296875 0.921875 0.859375q0.375 0.5625 0.578125 1.3906326q0.21875 0.8125 0.21875 2.1875q0 1.640625 -0.34375 2.65625q-0.328125 1.0 -1.0 1.546875q-0.671875 0.546875 -1.6875 0.546875q-1.34375 0 -2.125 -0.96875q-0.90625 -1.15625 -0.90625 -3.78125zm1.171875 0q0 2.296875 0.53125 3.0625q0.53125 0.75 1.328125 0.75q0.78125 0 1.3125 -0.75q0.546875 -0.765625 0.546875 -3.0625q0 -2.296875 -0.546875 -3.0468826q-0.53125 -0.75 -1.328125 -0.75q-0.78125 0 -1.265625 0.65625q-0.578125 0.8593826 -0.578125 3.1406326z" fill-rule="nonzero"></path><path fill="#e06666" d="m135.3727 163.06824l40.97638 0l0 40.97638l-40.97638 0z" fill-rule="nonzero"></path><path stroke="#000000" stroke-width="2.0" stroke-linejoin="round" stroke-linecap="butt" d="m135.3727 163.06824l40.97638 0l0 40.97638l-40.97638 0z" fill-rule="nonzero"></path><path fill="#ffffff" d="m156.9984 188.35643l-1.140625 0l0 -7.28125q-0.421875 0.390625 -1.09375 0.796875q-0.65625 0.390625 -1.1875 0.578125l0 -1.109375q0.953125 -0.4375 1.671875 -1.078125q0.71875 -0.640625 1.015625 -1.25l0.734375 0l0 9.34375z" fill-rule="nonzero"></path><path fill="#000000" fill-opacity="0.0" d="m118.585304 325.44357l74.551186 0l0 63.433075l-74.551186 0z" fill-rule="nonzero"></path><path fill="#000000" d="m154.39995 365.16357l0 -22.90625l3.03125 0l0 22.90625l-3.03125 0z" fill-rule="nonzero"></path><path fill="#000000" d="m191.34908 57.32021l40.97638 0l0 159.74803l-40.97638 0z" fill-rule="nonzero"></path><path stroke="#000000" stroke-width="2.0" stroke-linejoin="round" stroke-linecap="butt" d="m191.34908 57.32021l40.97638 0l0 159.74803l-40.97638 0z" fill-rule="nonzero"></path><path fill="#000000" d="m82.49869 217.07874l149.82677 0l0 40.97638l-149.82677 0z" fill-rule="nonzero"></path><path stroke="#000000" stroke-width="2.0" stroke-linejoin="round" stroke-linecap="butt" d="m82.49869 217.07874l149.82677 0l0 40.97638l-149.82677 0z" fill-rule="nonzero"></path><path fill="#000000" d="m82.49869 56.45669l40.97638 0l0 159.74803l-40.97638 0z" fill-rule="nonzero"></path><path stroke="#000000" stroke-width="2.0" stroke-linejoin="round" stroke-linecap="butt" d="m82.49869 56.45669l40.97638 0l0 159.74803l-40.97638 0z" fill-rule="nonzero"></path><path fill="#6d9eeb" d="m461.4777 121.66929l40.97638 0l0 40.976387l-40.97638 0z" fill-rule="nonzero"></path><path stroke="#000000" stroke-width="2.0" stroke-linejoin="round" stroke-linecap="butt" d="m461.4777 121.66929l40.97638 0l0 40.976387l-40.97638 0z" fill-rule="nonzero"></path><path fill="#ffffff" d="m484.80652 145.86372l0 1.09375l-6.15625 0q-0.015625 -0.40625 0.140625 -0.796875q0.234375 -0.625 0.75 -1.234375q0.515625 -0.609375 1.5 -1.40625q1.515625 -1.25 2.046875 -1.96875q0.53125 -0.734375 0.53125 -1.375q0 -0.6875 -0.484375 -1.140625q-0.484375 -0.46875 -1.265625 -0.46875q-0.828125 0 -1.328125 0.5q-0.484375 0.484375 -0.5 1.359375l-1.171875 -0.125q0.125 -1.3125 0.90625 -2.0q0.78125 -0.6875 2.109375 -0.6875q1.34375 0 2.125 0.75q0.78125 0.734375 0.78125 1.828125q0 0.5625 -0.234375 1.109375q-0.21875 0.53125 -0.75 1.140625q-0.53125 0.59375 -1.765625 1.625q-1.03125 0.859375 -1.328125 1.171875q-0.28125 0.3125 -0.46875 0.625l4.5625 0z" fill-rule="nonzero"></path><path fill="#e06666" d="m461.4777 174.5433l40.97638 0l0 40.97638l-40.97638 0z" fill-rule="nonzero"></path><path stroke="#000000" stroke-width="2.0" stroke-linejoin="round" stroke-linecap="butt" d="m461.4777 174.5433l40.97638 0l0 40.97638l-40.97638 0z" fill-rule="nonzero"></path><path fill="#ffffff" d="m478.80652 197.37837l1.140625 -0.15625q0.203125 0.96875 0.671875 1.40625q0.46875 0.421875 1.15625 0.421875q0.796875 0 1.34375 -0.546875q0.5625 -0.5625 0.5625 -1.390625q0 -0.796875 -0.515625 -1.296875q-0.5 -0.515625 -1.296875 -0.515625q-0.328125 0 -0.8125 0.125l0.125 -1.0q0.125 0.015625 0.1875 0.015625q0.734375 0 1.3125 -0.375q0.59375 -0.390625 0.59375 -1.1875q0 -0.625 -0.4375 -1.03125q-0.421875 -0.421875 -1.09375 -0.421875q-0.671875 0 -1.109375 0.421875q-0.4375 0.421875 -0.578125 1.25l-1.140625 -0.203125q0.21875 -1.140625 0.953125 -1.765625q0.75 -0.640625 1.84375 -0.640625q0.765625 0 1.40625 0.328125q0.640625 0.328125 0.984375 0.890625q0.34375 0.5625 0.34375 1.203125q0 0.59375 -0.328125 1.09375q-0.328125 0.5 -0.953125 0.78125q0.8125 0.203125 1.265625 0.796875q0.46875 0.59375 0.46875 1.5q0 1.21875 -0.890625 2.078125q-0.890625 0.84375 -2.25 0.84375q-1.21875 0 -2.03125 -0.734375q-0.8125 -0.734375 -0.921875 -1.890625z" fill-rule="nonzero"></path><path fill="#000000" fill-opacity="0.0" d="m444.69028 325.44357l74.55118 0l0 63.433075l-74.55118 0z" fill-rule="nonzero"></path><path fill="#000000" d="m472.7315 357.8042l2.859375 -0.25q0.203125 1.71875 0.9375 2.828125q0.75 1.09375 2.3125 1.78125q1.5625 0.671875 3.515625 0.671875q1.734375 0 3.0625 -0.515625q1.328125 -0.515625 1.96875 -1.40625q0.65625 -0.90625 0.65625 -1.96875q0 -1.078125 -0.625 -1.875q-0.625 -0.8125 -2.0625 -1.359375q-0.921875 -0.359375 -4.078125 -1.109375q-3.15625 -0.765625 -4.421875 -1.4375q-1.640625 -0.859375 -2.453125 -2.125q-0.796875 -1.28125 -0.796875 -2.859375q0 -1.734375 0.984375 -3.234375q0.984375 -1.515625 2.875 -2.296875q1.890625 -0.78125 4.203125 -0.78125q2.546875 0 4.484375 0.828125q1.953125 0.8125 3.0 2.40625q1.046875 1.59375 1.125 3.609375l-2.90625 0.21875q-0.234375 -2.171875 -1.59375 -3.28125q-1.34375 -1.109375 -3.984375 -1.109375q-2.75 0 -4.015625 1.015625q-1.25 1.0 -1.25 2.421875q0 1.234375 0.890625 2.03125q0.875 0.796875 4.5625 1.640625q3.703125 0.828125 5.078125 1.453125q2.0 0.921875 2.953125 2.34375q0.953125 1.40625 0.953125 3.25q0 1.828125 -1.046875 3.453125q-1.046875 1.609375 -3.015625 2.515625q-1.953125 0.890625 -4.40625 0.890625q-3.109375 0 -5.21875 -0.90625q-2.09375 -0.90625 -3.296875 -2.71875q-1.1875 -1.828125 -1.25 -4.125z" fill-rule="nonzero"></path><path fill="#000000" d="m517.45404 68.79527l40.97638 0l0 159.74803l-40.97638 0z" fill-rule="nonzero"></path><path stroke="#000000" stroke-width="2.0" stroke-linejoin="round" stroke-linecap="butt" d="m517.45404 68.79527l40.97638 0l0 159.74803l-40.97638 0z" fill-rule="nonzero"></path><path fill="#000000" d="m408.60367 228.5538l149.82675 0l0 40.97638l-149.82675 0z" fill-rule="nonzero"></path><path stroke="#000000" stroke-width="2.0" stroke-linejoin="round" stroke-linecap="butt" d="m408.60367 228.5538l149.82675 0l0 40.97638l-149.82675 0z" fill-rule="nonzero"></path><path fill="#000000" d="m408.60367 67.931755l40.97638 0l0 159.74805l-40.97638 0z" fill-rule="nonzero"></path><path stroke="#000000" stroke-width="2.0" stroke-linejoin="round" stroke-linecap="butt" d="m408.60367 67.931755l40.97638 0l0 159.74805l-40.97638 0z" fill-rule="nonzero"></path></g></svg>

